<?xml version="1.0" standalone="no"?>
<!DOCTYPE svg PUBLIC "-//W3C//DTD SVG 20010904//EN"
 "http://www.w3.org/TR/2001/REC-SVG-20010904/DTD/svg10.dtd">
<svg version="1.0" xmlns="http://www.w3.org/2000/svg"
 width="512.000000pt" height="512.000000pt" viewBox="0 0 512.000000 512.000000"
 preserveAspectRatio="xMidYMid meet">

<g transform="translate(0.000000,512.000000) scale(0.100000,-0.100000)"
fill="#000000" stroke="none">
<path d="M4143 3376 c-126 -131 -123 -120 -74 -218 39 -79 123 -188 160 -208
17 -8 18 -2 18 73 0 90 24 178 68 247 l25 39 -50 66 c-28 36 -50 70 -50 76 0
21 -21 5 -97 -75z"/>
<path d="M2080 3106 c-35 -93 -70 -203 -85 -268 -17 -70 -17 -78 -2 -101 14
-21 21 -23 69 -19 36 3 67 -1 92 -12 22 -9 41 -15 43 -12 2 2 17 55 33 117 15
63 44 159 64 214 20 55 36 101 36 103 0 1 -54 2 -120 2 -118 0 -121 -1 -130
-24z"/>
<path d="M1343 2898 c-44 -46 -88 -96 -98 -111 -18 -28 -18 -28 23 -110 39
-78 123 -186 161 -207 17 -8 18 -2 18 73 0 90 24 178 69 249 l25 39 -34 42
c-18 23 -42 57 -52 75 -11 17 -22 32 -25 32 -4 0 -43 -37 -87 -82z"/>
<path d="M4080 2280 l0 -280 320 0 320 0 0 80 0 80 -120 0 -120 0 0 58 c0 48
-4 62 -23 80 -13 12 -30 22 -38 22 -8 0 16 11 53 23 81 28 167 85 214 142 64
78 75 75 -286 75 l-320 0 0 -280z m263 18 c-12 -13 -23 -34 -25 -48 -3 -24 -4
-24 -31 15 -15 22 -27 43 -27 47 0 5 23 8 52 8 l51 0 -20 -22z"/>
<path d="M2066 2361 c-8 -50 -56 -141 -106 -201 -22 -26 -40 -55 -40 -64 0
-14 -32 -16 -320 -16 l-320 0 0 -280 0 -280 320 0 320 0 0 80 0 80 160 0 160
0 0 135 c0 97 4 146 15 171 14 34 13 36 -19 79 -52 68 -71 134 -70 243 l1 92
-47 0 c-47 0 -47 0 -54 -39z m-146 -501 l0 -180 -120 0 -120 0 0 57 c0 44 -5
62 -22 80 -12 13 -29 23 -37 23 -9 0 14 11 51 23 79 27 168 86 211 139 17 21
32 38 34 38 2 0 3 -81 3 -180z m-377 -42 c-12 -13 -23 -34 -25 -48 -3 -24 -4
-24 -31 15 -15 22 -27 43 -27 47 0 5 23 8 52 8 l51 0 -20 -22z"/>
<path d="M2560 1800 l0 -120 199 0 200 0 -41 120 -40 120 -159 0 -159 0 0
-120z"/>
<path d="M3920 1120 l0 -560 38 0 38 0 120 560 120 560 -158 0 -158 0 0 -560z"/>
<path d="M1120 880 l0 -320 38 0 39 0 70 187 70 188 -19 53 c-10 30 -22 89
-25 133 l-6 79 -83 0 -84 0 0 -320z"/>
<path d="M4344 971 c3 -9 15 -91 27 -183 13 -93 26 -168 29 -168 4 0 14 60 24
134 l18 134 -51 49 c-28 27 -49 42 -47 34z"/>
<path d="M582 937 c-21 -22 -22 -32 -22 -200 l0 -177 80 0 80 0 0 175 c0 173
0 176 -25 200 -32 33 -83 34 -113 2z"/>
<path d="M4776 693 c13 -60 23 -114 24 -120 0 -8 15 -13 40 -13 l40 0 0 120 0
120 -64 0 -64 0 24 -107z"/>
<path d="M1565 709 c4 -18 13 -52 19 -74 l12 -40 16 65 c10 35 16 66 14 67 -1
2 -17 6 -35 9 l-33 7 7 -34z"/>
<path d="M1972 640 l31 -80 38 0 39 0 0 80 0 80 -69 0 -69 0 30 -80z"/>
</g>
</svg>
